<svg width="1314" height="605" viewBox="0 0 1314 605" fill="none" xmlns="http://www.w3.org/2000/svg">
<g clip-path="url(#clip0_919_2)">
<path d="M0 33.3333V66.6667H11.0667C21.3333 66.6667 22.6667 67.0667 27.6 70.5334C30.5333 72.6667 34.2667 76.5334 35.8667 79.0667C38.5333 83.4667 38.6667 85.2 38.6667 121.2V158.667L31.6 166L24.5333 173.333H12.2667H0V448.5V389.333V537V551.5V544.333V561.5C0 597.233 0 569.5 0 569.5V578.5V594.5V518.917V484V604.667H679.6H1313.33V521.5C1313.33 521.5 1313.33 521.633 1313.33 481.5V466V447.5V429.5V414V398.5V173.333H1304C1298.4 173.333 1293.07 172.533 1290.93 171.467C1286.8 169.333 1279.73 162 1277.47 157.733C1276.53 155.867 1276 142.8 1276 118.933V83.0667L1280 77.4666C1286.27 68.8 1290.93 66.6667 1303.07 66.6667H1313.33V33.3333V0H656.667H0V33.3333ZM188 70.2667C190.8 72.4 194.667 76.4 196.533 79.3333L200 84.5334V120.8V156.933L196 162.534C188.667 172.667 186.4 173.333 160.533 173.333C138.667 173.333 137.733 173.2 133.467 170.133C131.067 168.4 127.6 164.934 125.867 162.534L122.667 158.133V120V82.0001L126.933 76.8C134.8 67.2 136.667 66.6667 161.067 66.6667C182.8 66.6667 182.933 66.6667 188 70.2667ZM356.933 70.0001C359.733 71.7334 363.6 75.7333 365.6 78.8L369.333 84.4V120.667V156.933L365.333 162.534C358 172.667 355.733 173.333 329.867 173.333C308 173.333 307.067 173.2 302.8 170.133C300.4 168.4 296.933 164.934 295.2 162.534L292 158.133V120V82.0001L296.267 76.8C304.133 67.2 306 66.6667 330.4 66.6667C351.333 66.6667 352.267 66.8001 356.933 70.0001ZM518.533 68.6667C520.667 69.7334 524.533 73.0667 527.2 76.2667L532 81.8667V120V158.133L528.8 162.534C527.067 164.934 523.6 168.4 521.2 170.133C516.933 173.2 516 173.333 494.133 173.333C468.267 173.333 466 172.667 458.667 162.534L454.667 156.933V120.667V84.4L458.4 78.8C460.4 75.7333 464.133 71.8667 466.667 70.0001C471.2 66.9334 472.267 66.8 493.067 66.6667C509.733 66.6667 515.733 67.0667 518.533 68.6667ZM684.933 70.5334C687.867 72.6667 691.6 76.5334 693.2 79.0667C695.867 83.4667 696 85.2 696 119.867C696 160.533 696 160.4 686.4 168.534L680.8 173.333H656.8H632.8L625.733 166L618.667 158.667V121.067C618.667 78.4001 618.667 78.5334 629.467 70.6667L635.067 66.6667H657.333H679.6L684.933 70.5334ZM850.267 70.5334C853.2 72.6667 856.933 76.5334 858.533 79.0667C861.2 83.4667 861.333 85.2 861.333 119.867C861.333 160.533 861.333 160.4 851.733 168.534L846.133 173.333H822.133H798.133L791.067 166L784 158.667V121.2C784 85.2 784.133 83.4667 786.8 79.0667C788.4 76.5334 792.133 72.6667 795.067 70.5334L800.4 66.6667H822.667H844.933L850.267 70.5334ZM1014.53 68.6667C1016.67 69.7334 1020.53 73.0667 1023.2 76.2667L1028 81.8667V120V158.133L1024.8 162.534C1023.07 164.934 1019.6 168.4 1017.2 170.133C1012.93 173.2 1012 173.333 990.133 173.333C964.267 173.333 962 172.667 954.667 162.534L950.667 156.933V120.4V83.8667L954 78.9333C955.867 76.2666 959.6 72.4 962.267 70.2667C967.067 66.6667 967.2 66.6667 988.933 66.6667C1005.6 66.6667 1011.73 67.2 1014.53 68.6667ZM1175.87 68.6667C1178 69.7334 1181.87 73.0667 1184.53 76.2667L1189.33 81.8667V120V158.133L1186.13 162.534C1184.4 164.934 1180.93 168.4 1178.53 170.133C1174.27 173.2 1173.33 173.333 1151.47 173.333C1125.6 173.333 1123.33 172.667 1116 162.534L1112 156.933V120.8V84.5334L1115.47 79.3333C1117.33 76.4 1121.07 72.4 1123.73 70.4C1128.67 66.8 1128.93 66.8 1150.4 66.6667C1167.07 66.6667 1173.07 67.0667 1175.87 68.6667Z" fill="#A3A3A3"/>
</g>
<defs>
<clipPath id="clip0_919_2">
<rect width="1314" height="605" fill="white"/>
</clipPath>
</defs>
</svg>
