<svg xmlns="http://www.w3.org/2000/svg" data-name="Layer 1" viewBox="0 0 90 112.5" x="0px" y="0px"><path d="M69.821,2.5a2.74,2.74,0,0,0-2.357-1.342H37.512a2.741,2.741,0,0,0-2.559,1.76L19.977,42.054a2.739,2.739,0,0,0,2.559,3.719H34.743L22.135,85.265a2.74,2.74,0,0,0,4.738,2.56l41.491-51.14a2.74,2.74,0,0,0-2.2-4.466l-11.2.291L69.869,5.215A2.74,2.74,0,0,0,69.821,2.5ZM47.874,34.059a2.739,2.739,0,0,0,2.476,4.052l10.011-.259L31.776,73.083,41.1,43.866a2.74,2.74,0,0,0-2.61-3.573H26.518L39.4,6.641H62.846Z"/></svg>