<svg xmlns="http://www.w3.org/2000/svg" xmlns:xlink="http://www.w3.org/1999/xlink" viewBox="0 0 164 205" version="1.1" x="0px" y="0px"><title>hasselblad-503</title><desc>Created with Sketch.</desc><g stroke="none" stroke-width="1" fill="none" fill-rule="evenodd"><g stroke="#000000"><path d="M78.5709698,21.924812 L63.2077158,21.924812 C62.6554248,21.924812 62.2142857,22.3731115 62.2142857,22.926117 L62.2142857,69.9385447 C62.2142857,70.4859186 62.6590595,70.9398496 63.2077158,70.9398496 L105.792284,70.9398496 C106.344575,70.9398496 106.785714,70.4915501 106.785714,69.9385447 L106.785714,22.926117 C106.785714,22.3787431 106.34094,21.924812 105.792284,21.924812 L90.4180042,21.924812 C89.7449616,21.354094 88.8872059,21 88.02343,21 L84.5030181,21 C79.3973842,21 80.9838657,21 80.9838657,21 C80.1185417,21 79.2535451,21.3558576 78.5709698,21.924812 Z" stroke-width="2.5"/><path d="M77.2976578,23.9011013 C77.6786785,22.2988673 79.3306747,21 80.9838657,21 C80.9838657,21 79.3973842,21 84.5030181,21 L88.02343,21 C89.6810712,21 91.3165413,22.3040597 91.6669205,23.9406044 C91.6669205,23.9406044 93.514319,31.7023722 94.7142857,42.347992 C95.9142525,52.9936118 94.8209289,61.6192028 94.8209289,61.6192028 C94.7620315,62.1700177 94.2686075,62.6165414 93.7151443,62.6165414 L75.2848557,62.6165414 C74.7330451,62.6165414 74.2456346,62.1700552 74.2013336,61.6217246 C74.2013336,61.6217246 73.3362492,53.021988 74.2857143,42.347992 C75.2351793,31.673996 77.2976578,23.9011013 77.2976578,23.9011013 Z" stroke-width="2.5" fill="#000000"/><path d="M73.6445363,75.5639098 C77.0392266,74.3661476 80.6931786,73.7142857 84.5,73.7142857 C88.3068214,73.7142857 91.9607734,74.3661476 95.3554637,75.5639098 L110.499959,75.5639098 C114.089832,75.5639098 117,78.4712814 117,82.0376353 L117,133.827026 C117,137.402366 114.08081,140.300752 110.499959,140.300752 L58.5000415,140.300752 C54.9101677,140.300752 52,137.39338 52,133.827026 L52,82.0376353 C52,78.4622954 54.9191902,75.5639098 58.5000415,75.5639098 L73.6445363,75.5639098 L73.6445363,75.5639098 Z M73.6445363,75.5639098 C61.0331804,80.013625 52,91.9975306 52,106.082707 C52,123.959292 66.5507456,138.451128 84.5,138.451128 C102.449254,138.451128 117,123.959292 117,106.082707 C117,91.9975306 107.96682,80.013625 95.3554637,75.5639098 M73.6445363,75.5639098 L73.6445363,75.5639098" stroke-width="2.5"/><path d="M52,83.9453996 C52,76.7626327 57.8255199,70.9398496 64.9974974,70.9398496 L104.002503,70.9398496 C111.180822,70.9398496 117,76.7639501 117,83.9453996 L117,133.300502 C117,137.166633 113.864915,140.300752 109.997563,140.300752 L59.0024366,140.300752 C55.1350976,140.300752 52,137.163004 52,133.300502 L52,83.9453996 Z" stroke-width="2.5"/><path d="M58.9642857,141.68797 L58.9642857,143.537594" stroke-width="5" stroke-linecap="round"/><path d="M109.571429,141.68797 L109.571429,143.537594" stroke-width="5" stroke-linecap="round"/><ellipse stroke-width="4" cx="84.5" cy="106.082707" rx="32.5" ry="32.3684211"/><ellipse stroke-width="3" cx="84.5" cy="106.082707" rx="24.1428571" ry="24.0451128"/><ellipse stroke-width="2.5" cx="84.5" cy="106.082707" rx="15.7857143" ry="15.7218045"/><ellipse stroke-width="1.5" cx="84.5" cy="106.082707" rx="12.0714286" ry="12.0225564"/><path d="M45,90.7998448 C45,89.9173863 45.7207334,89.2020124 46.6047397,89.2020124 L48.2475358,89.2020124 L52,87 L52,112 L48.2475358,109.783031 L46.6047397,109.783031 C45.7184665,109.783031 45,109.074586 45,108.185199 L45,90.7998448 Z" stroke-width="2" fill="#000000"/></g></g></svg>