<svg xmlns="http://www.w3.org/2000/svg" data-name="Layer 1" viewBox="0 0 90 112.5" x="0px" y="0px"><path d="M82.654,70.036,59.726,48.754l9.793-12.069a2.741,2.741,0,0,0-2.2-4.466l-11.2.291,14.9-27.295a2.74,2.74,0,0,0-2.4-4.053H38.666a2.741,2.741,0,0,0-2.559,1.76L29.356,20.563,11.074,3.594A2.74,2.74,0,0,0,7.346,7.61l19.9,18.47L21.131,42.054a2.74,2.74,0,0,0,2.559,3.719H35.9L23.29,85.265a2.74,2.74,0,0,0,4.737,2.56L56.266,53.019l22.66,21.033a2.74,2.74,0,1,0,3.728-4.016ZM40.551,6.641H64L49.028,34.059A2.74,2.74,0,0,0,51.5,38.111l10.011-.259L55.7,45.018,33.685,24.582Zm-7.62,66.442,9.327-29.217a2.739,2.739,0,0,0-2.61-3.573H27.672l3.9-10.194L52.241,49.283Z"/></svg>