<svg width="141" height="143" viewBox="0 0 141 143" fill="none" xmlns="http://www.w3.org/2000/svg">
<rect x="49" y="2" width="43" height="49" fill="white"/>
<circle cx="70.5" cy="80.5" r="62.5" fill="white"/>
<path fill-rule="evenodd" clip-rule="evenodd" d="M64.571 2.92481H49.2077C48.6554 2.92481 48.2143 3.37311 48.2143 3.92612V50.9385C48.2143 51.4859 48.6591 51.9398 49.2077 51.9398H91.7923C92.3446 51.9398 92.7857 51.4916 92.7857 50.9385V3.92612C92.7857 3.37874 92.3409 2.92481 91.7923 2.92481H76.418C75.745 2.35409 74.8872 2 74.0234 2H70.503C65.3974 2 66.9839 2 66.9839 2C66.1185 2 65.2536 2.35586 64.571 2.92481Z" stroke="black" stroke-width="2.5"/>
<path fill-rule="evenodd" clip-rule="evenodd" d="M63.2977 4.9011C63.6787 3.29887 65.3307 2 66.9839 2C66.9839 2 65.3974 2 70.503 2H74.0234C75.6811 2 77.3166 3.30406 77.6669 4.94061C77.6669 4.94061 79.5143 12.7024 80.7143 23.348C81.9143 33.9936 80.8209 42.6192 80.8209 42.6192C80.762 43.17 80.2686 43.6165 79.7152 43.6165H61.2849C60.7331 43.6165 60.2456 43.1701 60.2013 42.6217C60.2013 42.6217 59.3363 34.022 60.2857 23.348C61.2352 12.674 63.2977 4.9011 63.2977 4.9011Z" fill="black" stroke="black" stroke-width="2.5"/>
<path d="M59.6445 56.564C63.0392 55.3662 66.6932 54.7144 70.5 54.7144C74.3068 54.7144 77.9608 55.3662 81.3555 56.564M59.6445 56.564H44.5C40.9192 56.564 38 59.4624 38 63.0377V114.827C38 118.393 40.9102 121.301 44.5 121.301H96.5C100.081 121.301 103 118.402 103 114.827V63.0377C103 59.4714 100.09 56.564 96.5 56.564H81.3555M59.6445 56.564C47.0332 61.0137 38 72.9976 38 87.0828C38 104.959 52.5507 119.451 70.5 119.451C88.4493 119.451 103 104.959 103 87.0828C103 72.9976 93.9668 61.0137 81.3555 56.564" stroke="black" stroke-width="2.5"/>
<path fill-rule="evenodd" clip-rule="evenodd" d="M38 64.9455C38 57.7627 43.8255 51.9399 50.9975 51.9399H90.0025C97.1808 51.9399 103 57.764 103 64.9455V114.301C103 118.167 99.8649 121.301 95.9976 121.301H45.0024C41.1351 121.301 38 118.163 38 114.301V64.9455Z" stroke="black" stroke-width="2.5"/>
<path d="M44.9643 122.688V124.538" stroke="black" stroke-width="5" stroke-linecap="round"/>
<path d="M95.5714 122.688V124.538" stroke="black" stroke-width="5" stroke-linecap="round"/>
<path d="M70.5 119.451C88.4493 119.451 103 104.959 103 87.0828C103 69.2062 88.4493 54.7144 70.5 54.7144C52.5507 54.7144 38 69.2062 38 87.0828C38 104.959 52.5507 119.451 70.5 119.451Z" stroke="black" stroke-width="4"/>
<path d="M70.5 111.128C83.8337 111.128 94.6428 100.362 94.6428 87.0827C94.6428 73.803 83.8337 63.0376 70.5 63.0376C57.1662 63.0376 46.3571 73.803 46.3571 87.0827C46.3571 100.362 57.1662 111.128 70.5 111.128Z" stroke="black" stroke-width="3"/>
<path d="M70.5 102.804C79.2182 102.804 86.2857 95.7656 86.2857 87.0826C86.2857 78.3997 79.2182 71.3608 70.5 71.3608C61.7818 71.3608 54.7143 78.3997 54.7143 87.0826C54.7143 95.7656 61.7818 102.804 70.5 102.804Z" stroke="black" stroke-width="2.5"/>
<path d="M70.5 99.1052C77.1669 99.1052 82.5714 93.7225 82.5714 87.0826C82.5714 80.4427 77.1669 75.0601 70.5 75.0601C63.8331 75.0601 58.4286 80.4427 58.4286 87.0826C58.4286 93.7225 63.8331 99.1052 70.5 99.1052Z" stroke="black" stroke-width="1.5"/>
<path fill-rule="evenodd" clip-rule="evenodd" d="M31 71.7998C31 70.9174 31.7207 70.202 32.6047 70.202H34.2475L38 68V93L34.2475 90.783H32.6047C31.7185 90.783 31 90.0746 31 89.1852V71.7998Z" fill="black" stroke="black" stroke-width="2"/>
</svg>
